# xmcd
#
# Track frame offsets: 
#        150
#        9613
#        23194
#        38473
#        52166
#        74773
#        87565
#        102474
#        123382
#        135511
#        157565
#        176767
#        200722
#        223703
#
# Disc length: 3243 seconds
#
# Revision: 0
# Processed by: cddbd v1.5.2PL0 Copyright (c) Steve Scherf et al.
# Submitted via: ExactAudioCopy v1.0b4
#
DISCID=c80ca90e
DTITLE=The Electrophonics - Catch That Swingtrain - Live
DYEAR=2007
DGENRE=Blues
TTITLE0=FZ's Revenge
TTITLE1=Honey Bee
TTITLE2=Misunderstood Laughin' Clown
TTITLE3=I Can't Lose With The Stuff I Use
TTITLE4=Everything's Alright
TTITLE5=Dance
TTITLE6=Drivin'
TTITLE7=Steppin' Out
TTITLE8=Miss Babelone
TTITLE9=Pony Tail
TTITLE10=Your Cash Ain't Nothing But Trash
TTITLE11=Boogie Party
TTITLE12=Safronia B
TTITLE13=Boogie Party Movie Track
EXTD=
EXTT0=
EXTT1=
EXTT2=
EXTT3=
EXTT4=
EXTT5=
EXTT6=
EXTT7=
EXTT8=
EXTT9=
EXTT10=
EXTT11=
EXTT12=
EXTT13=
PLAYORDER=
